<svg version="1.1" id="Layer_1" xmlns="http://www.w3.org/2000/svg" xmlns:xlink="http://www.w3.org/1999/xlink" x="0px" y="0px" viewBox="0 0 500 500" enable-background="new 0 0 500 500" xml:space="preserve"> <g> <path fill="#808184" d="M165.789,322.723c-6.043,5.381-12.974,9.229-20.29,11.557l18.46,18.471 c6.742-3.324,13.111-7.639,18.886-12.963L165.789,322.723z"></path> <path fill="#808184" d="M304.846,195.293l17.044,17.053c3.762-3.76,7.934-6.86,12.363-9.335l-17.505-17.514 C312.552,188.33,308.558,191.584,304.846,195.293z"></path> <path fill="#FA0029" d="M388.743,283.764c-0.001-0.076-0.009-0.15-0.013-0.227c-0.241-5.977-2.975-11.922-8.209-17.158 L205.448,91.208c-10.979-10.985-25.073-10.987-36.059-0.01L63.044,197.491c-10.985,10.979-10.99,25.072-0.012,36.057l9.142,9.147 c2.496-3.459,5.286-6.768,8.397-9.878l68.892-68.856l17.045,17.053l-68.893,68.855c-3.146,3.143-5.826,6.577-8.073,10.204 l148.563,148.646c4.502,4.504,9.529,7.16,14.65,7.969c0.677,0.203,1.382,0.312,2.104,0.311l126.482,0.035 c4.066-0.002,7.365-3.295,7.367-7.365l0.033-124.857c0.006-0.266,0.006-0.535,0.002-0.803L388.743,283.764z"></path> <path fill="#C9182A" d="M166.508,181.013l-17.045-17.053l-68.892,68.856c-3.111,3.11-5.901,6.419-8.397,9.878l17.368,17.377 c2.247-3.627,4.928-7.061,8.073-10.204L166.508,181.013z"></path> <g> <defs> <path id="SVGID_11_" d="M304.846,195.293l17.043,17.052c22.002-21.989,57.79-21.979,79.78,0.022 c21.991,22,21.98,57.789-0.019,79.779l17.039,17.051c31.404-31.385,31.418-82.468,0.03-113.873 c-9.616-9.622-21.081-16.297-33.264-20.025C357.879,166.861,326.627,173.525,304.846,195.293"></path> </defs> <clipPath id="SVGID_2_"> <use xlink:href="#SVGID_11_" overflow="visible"></use> </clipPath> </g> <g> <defs> <path id="SVGID_33_" d="M71.379,223.624c-29.276,29.263-31.272,75.644-5.975,107.238l12.576,12.58 c31.579,25.318,77.965,23.35,107.242-5.914l-17.042-17.051c-22.001,21.988-57.79,21.98-79.779-0.021 c-21.992-22-21.981-57.791,0.021-79.779l75.963-61.784l-17.044-17.053L71.379,223.624z"></path> </defs> <clipPath id="SVGID_4_"> <use xlink:href="#SVGID_33_" overflow="visible"></use> </clipPath> </g> <path fill="#FFFFFF" d="M354.987,383.246c-7.315,7.314-19.173,7.311-26.485-0.006c-7.312-7.314-7.309-19.172,0.009-26.482 c7.312-7.314,19.174-7.312,26.483,0.004C362.309,364.078,362.306,375.934,354.987,383.246"></path> <path fill="#A7A6A6" d="M347.247,352.094c-1.557-0.475-3.163-0.74-4.776-0.801l-19.416,19.406 c0.168,4.557,1.971,9.062,5.447,12.541c3.031,3.033,6.847,4.791,10.793,5.309l21.003-20.99c-0.518-3.947-2.272-7.764-5.304-10.797 C352.752,354.52,350.082,352.961,347.247,352.094z"></path> <path fill="#A7A6A6" d="M418.72,195.325c31.385,31.402,31.374,82.488-0.03,113.873l-68.892,68.855l-17.044-17.051l68.896-68.855 c21.999-21.99,22.01-57.778,0.019-79.779"></path> <path fill="#FFFFFF" d="M299.499,311.801l-1.782-14.818l13.037-7.271c1.819-1.016,2.469-3.311,1.455-5.129l-7.288-13.068 l9.312-11.713c0.623-0.781,0.908-1.779,0.795-2.771c-0.113-0.996-0.616-1.9-1.399-2.523l-11.682-9.29l4.159-14.333 c0.574-1.982-0.55-4.053-2.517-4.654c-0.018-0.005-0.035-0.011-0.053-0.016l-14.378-4.173l-1.613-14.884 c-0.106-0.995-0.604-1.904-1.383-2.53c-0.778-0.628-1.774-0.917-2.768-0.811l-14.876,1.61l-7.147-13.143 c-0.478-0.877-1.264-1.537-2.241-1.812c-0.959-0.285-1.992-0.175-2.87,0.303l-13.16,7.155l-11.629-9.443 c-1.616-1.312-3.99-1.066-5.301,0.55l-9.442,11.627l-14.345-4.307c-1.994-0.598-4.096,0.534-4.693,2.528l-4.319,14.39 l-14.891,1.787c-0.993,0.12-1.898,0.628-2.516,1.414c-0.617,0.787-0.896,1.786-0.778,2.779l1.779,14.819l-13.036,7.272 c-1.818,1.015-2.469,3.309-1.456,5.127l7.291,13.068l-9.313,11.715c-1.294,1.627-1.024,3.998,0.606,5.295l11.681,9.287 l-4.158,14.336c-0.575,1.982,0.548,4.053,2.514,4.654c0.019,0.006,0.036,0.012,0.056,0.016l14.374,4.174l1.614,14.883 c0.224,2.068,2.084,3.564,4.153,3.34l14.875-1.611l7.146,13.145c0.491,0.9,1.297,1.523,2.209,1.801 c0.934,0.287,1.978,0.211,2.903-0.291l13.161-7.158l11.629,9.445c0.777,0.629,1.771,0.928,2.766,0.822 c0.994-0.104,1.907-0.596,2.537-1.371l9.441-11.627l14.345,4.305c0.956,0.287,1.989,0.182,2.869-0.291 c0.882-0.473,1.535-1.277,1.823-2.236l4.318-14.389l14.893-1.789C298.271,315.746,299.747,313.869,299.499,311.801z"></path> <path fill="#A7A6A6" d="M71.349,337.498"></path> <path fill="#A7A6A6" d="M71.349,337.498c-31.387-31.404-31.373-82.486,0.03-113.875l68.892-68.855l17.044,17.053l-68.892,68.855 c-22.004,21.988-22.014,57.779-0.021,79.779"></path> <path fill="#A7A6A6" d="M418.72,195.325c-27.678-27.69-70.662-30.959-101.972-9.827l17.505,17.514 c21.479-11.993,49.186-8.884,67.416,9.356c21.991,22.001,21.98,57.789-0.021,79.779l17.044,17.053 C450.094,277.812,450.104,226.727,418.72,195.325z"></path> <path fill="#A7A6A6" d="M88.401,320.455c-15.421-15.428-20.009-37.631-13.796-57.105l-18.461-18.47 c-14.854,30.091-9.804,67.597,15.204,92.619s62.512,30.092,92.61,15.252l-18.46-18.471 C126.021,340.482,103.82,335.883,88.401,320.455z"></path> </g> </svg>