<svg version="1.1" id="Layer_1" xmlns="http://www.w3.org/2000/svg" xmlns:xlink="http://www.w3.org/1999/xlink" x="0px" y="0px" viewBox="0 0 500 500" enable-background="new 0 0 500 500" xml:space="preserve"> <g> <path fill="#DADAD9" d="M429.513,194.143c-0.017-12.127-7.809-19.895-19.934-19.877H369.57l0.112,97.939 c0.024,17.774-12.256,30.207-29.863,30.232h-82.406c-5.642,4.955-31.209,27.415-32.605,28.646 c-3.274,2.976-7.452,4.613-11.777,4.613h-0.22c-4.325-0.009-8.502-1.659-11.794-4.648c-1.391-1.225-27.334-24.014-32.568-28.611 h-31.395l0.045,40.125c0.019,12.123,7.808,19.893,19.933,19.875h84.638c0.512,0.357,1.008,0.699,1.466,1.012 c0.418,0.285,0.792,0.539,1.096,0.758c2.267,1.99,32.993,28.98,33.466,29.399c1.48,1.362,3.248,2.087,5.114,2.091h0.22 c1.874,0,3.65-0.723,5.093-2.051c0.505-0.449,31.241-27.449,33.508-29.439c0.303-0.217,0.677-0.473,1.096-0.756 c0.459-0.314,0.956-0.654,1.469-1.014h85.609c12.126-0.018,19.895-8.096,19.878-20.221L429.513,194.143z"></path> <path fill="#DADAD9" d="M136.932,194.485l0.099,87.953h37.785l2.58,1.803c0.48,0.334,0.945,0.656,1.375,0.949l0.113,0.076 c0.451,0.309,0.856,0.586,1.191,0.828l0.754,0.6c1.854,1.627,25.982,22.821,32.104,28.201c6.246-5.492,30.438-26.742,32.1-28.201 l0.775-0.615c0.364-0.262,0.814-0.57,1.318-0.91l0.051-0.035c0.402-0.275,0.834-0.572,1.279-0.883l2.584-1.812h88.765 c8.173-0.012,9.885-5.557,9.878-10.207l-0.112-97.964H156.808C144.681,174.284,136.914,182.36,136.932,194.485z"></path> <path fill="#C6C6C6" d="M201.017,331.049c3.292,2.989,7.469,4.64,11.794,4.648h0.22c4.325,0,8.503-1.638,11.777-4.613 c1.396-1.231,26.964-23.691,32.605-28.646h82.406c17.607-0.025,29.888-12.458,29.863-30.232l-0.112-97.939h-20l0.112,97.964 c0.007,4.65-1.705,10.195-9.878,10.207H251.04l-2.584,1.812c-0.445,0.311-0.877,0.607-1.279,0.883l-0.051,0.035 c-0.504,0.34-0.954,0.648-1.318,0.91l-0.775,0.615c-1.662,1.459-25.854,22.709-32.1,28.201c-6.121-5.38-30.25-26.574-32.104-28.201 l-0.754-0.6c-0.335-0.242-0.74-0.52-1.191-0.828l-0.113-0.076c-0.43-0.293-0.895-0.615-1.375-0.949l-2.58-1.803H137.03l0.023,20 h31.395C173.683,307.035,199.626,329.824,201.017,331.049z"></path> <g> <path fill="#FA0029" d="M395.356,290.113c-0.708-2.182-2.729-3.65-5.021-3.65h-16.366l-4.307-13.256 c-0.404,16.164-11.104,27.695-26.683,29.088l4.6,3.342l-5.057,15.562c-0.709,2.184,0.062,4.557,1.919,5.907 c0.91,0.657,1.981,1.007,3.104,1.007c1.122,0,2.197-0.35,3.106-1.007l13.237-9.62l13.239,9.62 c0.909,0.657,1.982,1.007,3.105,1.007c1.121,0,2.194-0.35,3.102-1.007c1.855-1.349,2.63-3.724,1.921-5.907l-5.057-15.562 l13.237-9.619C395.295,294.668,396.067,292.297,395.356,290.113z"></path> <path fill="#C9182A" d="M369.662,273.207l-0.749-2.307c-0.707-2.184-2.728-3.65-5.023-3.65c-2.295,0-4.314,1.467-5.024,3.65 l-5.057,15.562h-16.363c-2.294,0-4.313,1.469-5.022,3.648c-0.71,2.182,0.06,4.555,1.918,5.906l8.639,6.277 C358.558,300.902,369.258,289.371,369.662,273.207z"></path> <path fill="#FA0029" d="M266.996,305.637l-5.058,15.562c-0.708,2.184,0.064,4.557,1.921,5.907 c0.909,0.657,1.982,1.007,3.105,1.007c1.121,0,2.195-0.35,3.104-1.007l13.24-9.62l13.237,9.62 c0.909,0.657,1.983,1.007,3.107,1.007c1.118,0,2.193-0.35,3.099-1.007c1.86-1.349,2.632-3.724,1.923-5.907l-5.059-15.562 l4.402-3.199h-41.426L266.996,305.637z"></path> <path fill="#C9182A" d="M314.774,290.113c-0.708-2.182-2.727-3.65-5.022-3.65h-16.365l-1.308-4.025h-17.545l-1.308,4.025h-16.363 c-2.295,0-4.315,1.469-5.022,3.648c-0.711,2.182,0.061,4.555,1.917,5.906l8.835,6.42h41.426l8.836-6.42 C314.713,294.668,315.483,292.297,314.774,290.113z"></path> <path fill="#FA0029" d="M181.358,321.199c-0.71,2.184,0.061,4.557,1.916,5.907c0.911,0.657,1.984,1.007,3.106,1.007 c1.123,0,2.196-0.35,3.104-1.007l3.855-2.802c-3.02-2.653-6.591-5.791-10.107-8.879L181.358,321.199z"></path> <path fill="#C9182A" d="M215.962,327.106c0.91,0.657,1.984,1.007,3.104,1.007c1.123,0,2.198-0.35,3.104-1.007 c1.856-1.349,2.629-3.724,1.92-5.907l-4.072-12.532c-3.025,2.658-5.58,4.903-7.086,6.228c-6.121-5.38-30.25-26.574-32.104-28.201 l-0.289-0.23h-4.261c-2.295,0-4.313,1.469-5.022,3.648c-0.709,2.182,0.061,4.555,1.918,5.906l13.239,9.619l-3.181,9.789 c3.517,3.088,7.088,6.226,10.107,8.879l9.383-6.818L215.962,327.106z"></path> </g> <path fill="#E6E5E5" d="M359.513,124.01c-0.017-12.127-7.809-20.01-19.934-20.01H86.808c-12.127,0-19.894,8.227-19.876,20.352 l0.167,147.926C67.117,284.4,74.906,292,87.031,292h84.638c0.512,1,1.008,0.918,1.466,1.23c0.418,0.285,0.792,0.648,1.096,0.867 c2.267,1.99,32.993,29.187,33.466,29.605c1.48,1.362,3.248,2.297,5.114,2.297h0.22c1.874,0,3.65-0.874,5.093-2.202 c0.505-0.449,31.241-27.524,33.508-29.515c0.303-0.217,0.677-0.729,1.096-1.013c0.459-0.314,0.956-0.271,1.469-1.271h85.609 c12.126,0,19.895-7.943,19.878-20.068L359.513,124.01z"></path> <g> <g> <path fill="#FA0029" d="M325.356,220.114c-0.708-2.182-2.729-3.65-5.021-3.65h-16.366l-5.056-15.562 c-0.707-2.184-2.728-3.65-5.023-3.65c-2.295,0-4.314,1.467-5.024,3.65l-5.057,15.562h-16.363c-2.294,0-4.313,1.469-5.022,3.648 c-0.71,2.182,0.06,4.555,1.918,5.906l13.238,9.619l-5.057,15.562c-0.709,2.184,0.062,4.557,1.919,5.908 c0.91,0.656,1.981,1.006,3.104,1.006c1.122,0,2.197-0.35,3.106-1.006l13.237-9.621l13.239,9.621 c0.909,0.656,1.982,1.006,3.105,1.006c1.121,0,2.194-0.35,3.102-1.006c1.855-1.35,2.63-3.725,1.921-5.908l-5.057-15.562 l13.237-9.619C325.295,224.668,326.067,222.297,325.356,220.114z"></path> <path fill="#FA0029" d="M244.774,220.114c-0.708-2.182-2.727-3.65-5.022-3.65h-16.365l-5.057-15.562 c-0.708-2.184-2.727-3.65-5.021-3.65c-2.298,0-4.315,1.467-5.025,3.65l-5.057,15.562h-16.363c-2.295,0-4.315,1.469-5.022,3.648 c-0.711,2.182,0.061,4.555,1.917,5.906l13.238,9.619l-5.058,15.562c-0.708,2.184,0.064,4.557,1.921,5.908 c0.909,0.656,1.982,1.006,3.105,1.006c1.121,0,2.195-0.35,3.104-1.006l13.24-9.621l13.237,9.621 c0.909,0.656,1.983,1.006,3.107,1.006c1.118,0,2.193-0.35,3.099-1.006c1.86-1.35,2.632-3.725,1.923-5.908l-5.059-15.562 l13.238-9.619C244.713,224.668,245.483,222.297,244.774,220.114z"></path> <path fill="#FA0029" d="M164.191,220.114c-0.71-2.182-2.729-3.65-5.023-3.65h-16.364l-5.057-15.562 c-0.709-2.184-2.729-3.65-5.023-3.65s-4.313,1.467-5.023,3.65l-5.056,15.562h-16.365c-2.295,0-4.313,1.469-5.022,3.648 c-0.709,2.182,0.061,4.555,1.918,5.906l13.239,9.619l-5.056,15.562c-0.71,2.184,0.061,4.557,1.916,5.908 c0.911,0.656,1.984,1.006,3.106,1.006c1.123,0,2.196-0.35,3.104-1.006l13.238-9.621l13.238,9.621 c0.91,0.656,1.984,1.006,3.104,1.006c1.123,0,2.198-0.35,3.104-1.006c1.856-1.35,2.629-3.725,1.92-5.908l-5.057-15.562 l13.237-9.619C164.127,224.668,164.899,222.297,164.191,220.114z"></path> </g> <g> <path fill="#FA0029" d="M204.484,159.25c-0.71-2.184-2.729-3.65-5.024-3.65h-16.364l-5.057-15.562 c-0.709-2.181-2.728-3.65-5.023-3.65s-4.314,1.47-5.023,3.648l-5.058,15.564h-16.363c-2.295,0-4.313,1.467-5.022,3.648 c-0.71,2.182,0.06,4.555,1.917,5.906l13.239,9.618l-5.057,15.563c-0.708,2.182,0.062,4.555,1.919,5.906 c0.91,0.658,1.981,1.008,3.104,1.008c1.124,0,2.196-0.35,3.104-1.008l13.24-9.621l13.24,9.621 c0.908,0.658,1.981,1.008,3.104,1.008s2.195-0.35,3.103-1.008c1.856-1.348,2.631-3.72,1.919-5.906l-5.055-15.563l13.239-9.618 C204.42,163.805,205.193,161.434,204.484,159.25z"></path> <path fill="#FA0029" d="M285.064,159.25c-0.708-2.184-2.728-3.65-5.022-3.65h-16.363l-5.056-15.562 c-0.709-2.181-2.729-3.65-5.024-3.65c-2.296,0-4.314,1.47-5.025,3.648l-5.057,15.564h-16.364c-2.292,0-4.312,1.467-5.021,3.648 c-0.71,2.182,0.062,4.555,1.919,5.906l13.239,9.618l-5.06,15.563c-0.707,2.182,0.065,4.555,1.921,5.906 c0.909,0.658,1.98,1.008,3.104,1.008s2.197-0.35,3.104-1.008l13.24-9.621l13.239,9.621c0.908,0.658,1.98,1.008,3.102,1.008 c1.123,0,2.198-0.35,3.105-1.008c1.857-1.348,2.629-3.72,1.919-5.906l-5.056-15.563l13.237-9.618 C285.005,163.805,285.776,161.434,285.064,159.25z"></path> </g> </g> </g> </svg>