<svg version="1.1" id="Layer_1" xmlns="http://www.w3.org/2000/svg" xmlns:xlink="http://www.w3.org/1999/xlink" x="0px" y="0px" viewBox="0 0 500 500" enable-background="new 0 0 500 500" xml:space="preserve"> <g> <path fill="#A7A6A6" d="M78.641,364.479c-0.02,6.018,4.855,10.904,10.885,10.914h316.947c6.027-0.01,10.904-4.896,10.885-10.914 l-0.044-4.117H78.684L78.641,364.479z"></path> <path fill="#DADAD9" d="M406.352,345.361H89.648c-6.012-0.014-10.91,4.857-10.922,10.885l-0.043,4.115h338.63l-0.044-4.115 C417.256,350.219,412.365,345.348,406.352,345.361z"></path> <path id="XMLID_4_" fill="#A7A6A6" d="M406.99,345.361c0-87.809-71.182-158.992-158.992-158.992 c-87.809,0-158.992,71.184-158.992,158.992H406.99z"></path> <path fill="#DADAD9" d="M248.223,211.341c-66.838,0-121.217,49.219-121.217,109.718c0,1.656,1.344,3,3,3h11c1.658,0,3-1.344,3-3 c0-48.367,49.51-92.718,104.217-92.718c1.658,0,3-1.343,3-3v-11C251.223,212.684,249.881,211.341,248.223,211.341z"></path> <path id="XMLID_282_" fill="#A7A6A6" d="M232.525,187.286c-6.029-0.01-10.904-4.896-10.885-10.913l0.086-4.232 c0.012-6.028,4.91-10.899,10.922-10.885h30.703c6.014-0.015,10.904,4.856,10.918,10.885l0.088,4.232 c0.02,6.017-4.857,10.903-10.885,10.913H232.525z"></path> <path fill="#FA0029" d="M101.767,189.414c-0.069-0.668-0.171-1.303-0.274-1.941c-0.049-0.304-0.099-0.608-0.148-0.947l-0.441-2.811 c-0.148-0.837-0.324-1.661-0.502-2.489l-1.215-5.633c-0.285-1.138-0.502-2.214-0.731-3.353c-0.108-0.534-0.216-1.068-0.324-1.58 c-0.196-0.974-0.343-1.918-0.499-2.916c-0.098-0.631-0.196-1.26-0.31-1.912c-0.063-0.35-0.089-0.754-0.114-1.183 c-0.021-0.348-0.043-0.694-0.078-1.007l-0.263-2.767l0.004-1.685c0.005-0.575-0.005-1.148-0.015-1.719l-0.016-0.959 c-0.021-0.482,0.008-0.909,0.041-1.403c0.016-0.234,0.031-0.469,0.039-0.658c0.052-0.775,0.084-1.548,0.109-2.307l0.041-1.037 l0.103-1.077c0.077-0.785,0.151-1.562,0.202-2.285l0.785-8.638c0.037-0.47,0.082-0.928,0.125-1.379 c0.082-0.857,0.168-1.743,0.199-2.63l0.133-3.571c0.067-1.736-0.01-3.285-0.079-4.651c-0.024-0.481-0.048-0.937-0.062-1.362 c-0.001-0.057-0.005-0.112-0.01-0.168c-0.12-1.196-0.281-2.184-0.412-2.977c-0.053-0.319-0.1-0.604-0.143-0.907 c-0.246-1.512-0.552-3.394-2.699-3.394c-1.12,0-2.104,0.744-2.406,1.822l-0.379,1.344c-0.068,0.272-0.153,0.587-0.248,0.94 c-0.191,0.71-0.422,1.566-0.656,2.552l-1.662,5.226l-0.186,0.54c-0.669,1.932-1.408,4.067-2.187,6.428l-0.478,1.432 c-0.715,2.139-1.525,4.562-2.188,7.112c-0.219,0.788-0.421,1.59-0.624,2.4l-0.303,1.202c-0.011,0.042-0.02,0.084-0.028,0.126 l-0.254,1.286c-0.174,0.887-0.345,1.788-0.5,2.711l-0.117,0.68c-0.127,0.718-0.258,1.46-0.303,2.11l-0.092,0.876 c-0.061,0.563-0.121,1.13-0.166,1.687l-0.17,1.929l2.49,0.217l-2.502-0.087c-0.004,0.048-0.006,0.097-0.008,0.145l-0.007,0.327 l0.002,0.542c0.005,0.457,0.007,0.917,0.009,1.378c0.004,1.456,0.009,2.962,0.136,4.558l0.33,3.08 c0.099,0.933,0.2,1.896,0.399,2.801c0.1,0.523,0.198,1.054,0.297,1.585c0.244,1.326,0.498,2.698,0.799,3.991l1.806,7.706 l0.513,2.443c0.062,0.309,0.129,0.622,0.197,0.934c0.104,0.479,0.207,0.956,0.283,1.426l0.76,4.525 c0.043,0.551,0.098,1.099,0.154,1.645l0.252,2.515l0.277,4.403c0.039,0.994,0.078,1.978,0.137,2.948 c-0.004,0.507-0.01,1.009-0.018,1.507c-0.013,0.944-0.025,1.874-0.012,2.854c0.037,1.008-0.012,2.038-0.059,3.034l-0.039,0.869 c-0.065,1.737-0.17,3.371-0.271,4.95c-0.05,0.771-0.098,1.518-0.137,2.225c-0.031,0.487-0.081,0.956-0.129,1.409 c-0.062,0.571-0.119,1.123-0.142,1.612c-0.066,0.974-0.128,1.767-0.216,2.489c-0.094,0.824-0.168,1.567-0.204,2.124l-0.306,2.885 c-0.121,1.15,0.564,2.232,1.654,2.617c0.273,0.097,0.554,0.144,0.831,0.144c0.83,0,1.63-0.416,2.101-1.144l0.215-0.333 c0.145-0.22,0.345-0.527,0.549-0.895l0.173-0.297c0.446-0.765,1.056-1.812,1.678-3.115c0.856-1.69,1.688-3.548,2.487-5.564 l1.237-3.311c0.362-0.908,0.618-1.832,0.864-2.726c0.117-0.422,0.234-0.85,0.358-1.256c0.876-2.761,1.463-5.77,2.083-8.955 l0.025-0.13c0.01-0.05,0.018-0.101,0.025-0.15c0.146-1.112,0.271-2.25,0.399-3.409l0.354-3.243 c0.007-0.073,0.011-0.147,0.012-0.222l0.08-4.451c0.012-0.575,0.025-1.153,0.021-1.734c0-0.055-0.002-0.11-0.006-0.166 L101.767,189.414z"></path> <path fill="#FF8B8B" d="M144.002,185.136c-0.008-0.826-0.084-1.596-0.158-2.341c-0.037-0.365-0.074-0.734-0.107-1.18 c-0.252-2.521-0.531-4.814-0.84-6.912c-0.127-1.181-0.276-2.349-0.445-3.594c-0.1-0.644-0.148-1.255-0.199-1.905 c-0.035-0.451-0.07-0.898-0.117-1.318l-0.17-1.716c-0.02-0.16-0.034-0.331-0.031-0.53c0.002-0.044,0.001-0.087,0-0.131 l-0.155-4.467h-0.001v-0.017l0.11-3.357c0.017-0.295,0.021-0.588,0.025-0.881c0.004-0.273,0.007-0.547,0.025-0.803l0.321-4.015 c0.021-0.384,0.038-0.767,0.1-1.216l0.063-0.565c0.116-1.02,0.229-2.027,0.302-2.969l0.168-1.629 c0.187-1.785,0.369-3.543,0.506-5.232c0.209-2.389,0.32-4.521,0.342-6.511c0.006-0.338,0.015-0.67,0.023-0.996 c0.02-0.663,0.036-1.309,0.023-1.963c-0.021-0.667-0.066-1.33-0.109-1.961l-0.049-0.741c-0.098-1.879-0.282-3.375-0.562-4.569 c-0.152-0.816-0.321-1.498-0.458-2.049c-0.057-0.229-0.107-0.431-0.16-0.665c-0.172-0.697-0.288-1.069-0.288-1.069 c-0.311-1.001-1.217-1.701-2.264-1.755s-2.018,0.553-2.429,1.518c0,0-0.153,0.359-0.415,1.094 c-0.057,0.173-0.129,0.373-0.209,0.596c-0.197,0.547-0.442,1.228-0.699,2.118c-0.144,0.55-0.406,1.233-0.684,1.958 c-0.207,0.542-0.424,1.109-0.607,1.644l-1.807,4.87c-0.231,0.646-0.484,1.318-0.744,2.012c-0.463,1.232-0.941,2.506-1.395,3.866 l-0.1,0.301c-0.688,2.082-1.398,4.234-2.015,6.591c-0.603,2.311-1.278,5.016-1.647,7.824l-0.068,0.429 c-0.201,1.249-0.408,2.541-0.433,3.865l-0.224,4.043c0,0.013-0.004,0.122-0.005,0.134c-0.001,0.042-0.001,0.084-0.001,0.126 l0.006,0.271c0.001,0.043,0.003,0.087,0.006,0.131c0.048,0.658,0.081,1.302,0.114,1.942c0.101,1.925,0.203,3.915,0.653,6.171 c0.232,1.466,0.472,2.981,0.848,4.263l0.162,0.636c0.266,1.043,0.539,2.121,0.857,3.175c0.616,2.003,1.324,4.132,2.236,6.72 l2.252,6.22c0.092,0.253,0.184,0.502,0.244,0.687l0.073,0.248c0.114,0.394,0.229,0.78,0.35,1.106l0.809,2.365 c0.362,1.018,0.649,1.98,0.902,2.831l0.267,0.886c0.221,0.776,0.453,1.448,0.645,1.999c0.082,0.236,0.156,0.445,0.213,0.627 c0.012,0.034,0.023,0.067,0.035,0.101c0.459,1.259,0.933,2.561,2.684,2.561c1.081,0,2.042-0.703,2.379-1.73 c0,0,0.12-0.368,0.315-1.127c0.039-0.17,0.089-0.364,0.146-0.582c0.141-0.543,0.333-1.288,0.496-2.154 c0.046-0.236,0.099-0.484,0.153-0.744c0.22-1.039,0.491-2.332,0.544-3.735c0.027-0.398,0.064-0.814,0.104-1.243 c0.12-1.357,0.258-2.894,0.166-4.463L144.002,185.136z"></path> <path fill="#FA0029" d="M188.723,126.698l-0.093-0.474c-0.074-0.383-0.147-0.75-0.245-1.152c-0.15-0.567-0.328-1.046-0.488-1.479 c-0.265-0.736-0.555-1.385-0.788-1.906l-0.116-0.26c-0.209-0.508-0.433-0.923-0.596-1.227c-0.051-0.093-0.096-0.176-0.131-0.248 c-0.016-0.031-0.032-0.063-0.049-0.095c-0.23-0.428-0.383-0.656-0.383-0.656c-0.439-0.658-1.178-1.07-1.969-1.11 c-0.801-0.044-1.566,0.297-2.069,0.908c0,0-0.175,0.213-0.499,0.697c-0.042,0.067-0.096,0.145-0.154,0.231 c-0.195,0.287-0.462,0.68-0.693,1.114l-0.178,0.31c-0.285,0.495-0.639,1.111-1.004,1.874c-0.288,0.646-0.672,1.357-1.078,2.11 l-0.117,0.217c-0.5,0.979-0.954,1.95-1.334,2.855c-0.387,0.888-0.918,2.103-1.316,3.244c-0.19,0.483-0.348,0.977-0.507,1.478 l-0.092,0.293c-0.247,0.695-0.448,1.338-0.591,1.876c-0.357,1.165-0.625,2.332-0.883,3.461l-0.092,0.401 c-0.009,0.038-0.017,0.076-0.023,0.114l-0.1,0.546c-0.201,1.099-0.408,2.235-0.541,3.394c-0.114,0.731-0.158,1.457-0.191,2.113 l-0.01,0.152c-0.039,0.647-0.077,1.286-0.073,1.847c-0.04,1.604,0.006,2.847,0.147,3.993c0.13,1.181,0.31,2.364,0.525,3.469 c0.209,1.198,0.576,2.277,0.898,3.178c0.277,0.794,0.583,1.476,0.828,2.023l0.098,0.216c0.219,0.531,0.453,0.955,0.625,1.264 c0.047,0.085,0.09,0.16,0.122,0.227c0.015,0.03,0.031,0.06,0.048,0.089c0.367,0.665,0.532,0.845,0.621,0.942 c0.475,0.517,1.147,0.803,1.846,0.803c0.035,0,0.068-0.001,0.103-0.002c0.735-0.029,1.425-0.389,1.878-0.968 c0,0,0.166-0.215,0.428-0.613c0.019-0.029,0.037-0.059,0.055-0.089c0.044-0.074,0.102-0.159,0.166-0.256 c0.204-0.311,0.449-0.688,0.652-1.07l0.223-0.392c0.283-0.493,0.602-1.052,0.879-1.626c0.174-0.341,0.341-0.698,0.514-1.071 c0.197-0.421,0.402-0.866,0.685-1.405c0.487-1.005,0.933-2.021,1.349-3.082c0.148-0.41,0.313-0.831,0.482-1.263 c0.247-0.632,0.502-1.284,0.719-1.917c0.41-1.144,0.744-2.271,1.103-3.554c0.337-1.104,0.591-2.214,0.836-3.286l0.122-0.529 c0.008-0.04,0.017-0.079,0.023-0.119l0.143-0.775c0.191-1.028,0.389-2.092,0.499-3.083c0.185-1.22,0.294-2.559,0.335-4.083 c0.045-1.374,0.029-2.643-0.053-3.943C189.107,129.165,188.945,127.939,188.723,126.698z"></path> <path fill="#FA0029" d="M413.748,160.746c0-0.051-0.014-0.224-0.019-0.274l-0.168-1.915c-0.048-0.57-0.108-1.137-0.169-1.7 l-0.085-0.805c-0.052-0.722-0.183-1.464-0.309-2.182l-0.119-0.689c-0.153-0.913-0.324-1.814-0.498-2.699l-0.255-1.288 c-0.008-0.042-0.018-0.084-0.027-0.126l-0.302-1.197c-0.204-0.815-0.407-1.617-0.614-2.368c-0.673-2.588-1.483-5.011-2.199-7.149 l-0.477-1.432c-0.779-2.36-1.518-4.496-2.186-6.428l-1.85-5.766c-0.234-0.985-0.464-1.842-0.654-2.552 c-0.096-0.354-0.18-0.668-0.267-1.006l-0.091-0.319c-0.367-1.304-0.784-2.781-2.678-2.781c-1.181,0-2.201,0.83-2.446,1.986 c0,0-0.103,0.484-0.261,1.465c-0.035,0.246-0.082,0.53-0.135,0.85c-0.129,0.793-0.291,1.78-0.41,2.977 c-0.006,0.056-0.01,0.111-0.012,0.168c-0.014,0.426-0.036,0.881-0.061,1.362c-0.068,1.366-0.146,2.915-0.079,4.648l0.133,3.569 c0.031,0.892,0.116,1.777,0.199,2.635c0.044,0.451,0.088,0.909,0.128,1.408l0.777,8.562c0.056,0.771,0.131,1.547,0.207,2.327 l0.143,2.11c0.027,0.768,0.059,1.54,0.107,2.265c0.011,0.24,0.026,0.475,0.043,0.709c0.033,0.494,0.062,0.921,0.037,1.491 l-0.012,0.871c-0.01,0.57-0.02,1.144-0.016,1.706l0.004,1.695l-0.26,2.733c-0.037,0.348-0.061,0.694-0.081,1.042 c-0.026,0.429-0.051,0.833-0.117,1.201c-0.11,0.634-0.208,1.263-0.307,1.894c-0.155,0.998-0.303,1.942-0.493,2.889 c-0.115,0.539-0.223,1.073-0.33,1.607c-0.23,1.139-0.447,2.215-0.75,3.434l-1.197,5.552c-0.177,0.828-0.352,1.652-0.509,2.538 l-0.438,2.791c-0.045,0.31-0.094,0.614-0.144,0.918c-0.104,0.639-0.205,1.273-0.28,2.004l-0.43,5.695 c-0.004,0.056-0.006,0.111-0.007,0.166c-0.003,0.581,0.009,1.159,0.021,1.734l0.081,4.451c0,0.074,0.004,0.148,0.011,0.222 l0.354,3.243c0.127,1.159,0.253,2.297,0.4,3.409c0.006,0.05,0.015,0.101,0.024,0.15l0.024,0.13 c0.621,3.186,1.207,6.194,2.076,8.929c0.132,0.433,0.25,0.86,0.366,1.282c0.247,0.894,0.502,1.817,0.845,2.675l1.275,3.407 c0.781,1.971,1.611,3.828,2.443,5.468c0.646,1.354,1.258,2.401,1.703,3.166l0.153,0.262c0.224,0.402,0.424,0.71,0.602,0.981 l0.183,0.281c0.471,0.728,1.27,1.144,2.1,1.144c0.277,0,0.558-0.047,0.831-0.144c1.091-0.385,1.774-1.467,1.655-2.617l-0.299-2.787 c-0.043-0.654-0.118-1.397-0.215-2.242c-0.085-0.702-0.146-1.495-0.21-2.419c-0.026-0.539-0.083-1.091-0.144-1.662 c-0.049-0.453-0.1-0.922-0.129-1.396c-0.04-0.72-0.088-1.466-0.138-2.237c-0.102-1.579-0.206-3.213-0.271-4.958l-0.039-0.861 c-0.048-0.996-0.097-2.026-0.056-3.099c0.01-0.916-0.002-1.846-0.016-2.79c-0.006-0.498-0.014-1-0.017-1.507 c0.06-0.971,0.099-1.954,0.138-2.948l0.111-2.764c0.003-0.021,0.005-0.042,0.008-0.062l0.409-4.092 c0.056-0.546,0.112-1.094,0.155-1.645l0.761-4.537c0.073-0.458,0.179-0.935,0.282-1.414c0.066-0.312,0.135-0.625,0.191-0.909 l2.324-10.175c0.301-1.292,0.554-2.664,0.799-3.99c0.098-0.531,0.195-1.062,0.283-1.522c0.212-0.968,0.313-1.931,0.412-2.863 l0.336-3.149c0.121-1.526,0.126-3.032,0.131-4.488c0.001-0.461,0.002-0.921,0.008-1.399l0.001-0.345L413.748,160.746z"></path> <path fill="#FF8B8B" d="M369.574,160.786l-0.219-3.932c-0.029-1.415-0.236-2.707-0.436-3.956l-0.06-0.365 c-0.378-2.872-1.054-5.577-1.657-7.888c-0.615-2.356-1.326-4.509-2.015-6.591l-0.102-0.309c-0.452-1.353-0.931-2.626-1.393-3.858 c-0.261-0.693-0.513-1.365-0.753-2.037l-1.777-4.786c-0.203-0.593-0.42-1.16-0.629-1.702c-0.277-0.725-0.539-1.408-0.701-2.024 c-0.238-0.824-0.483-1.505-0.68-2.052c-0.081-0.223-0.152-0.423-0.23-0.656c-0.242-0.674-0.395-1.033-0.395-1.033 c-0.41-0.965-1.38-1.569-2.43-1.518c-1.047,0.054-1.951,0.754-2.263,1.755c0,0-0.116,0.372-0.302,1.128 c-0.039,0.176-0.09,0.378-0.146,0.606c-0.137,0.551-0.307,1.232-0.458,2.049c-0.28,1.194-0.464,2.689-0.562,4.55l-0.05,0.761 c-0.044,0.631-0.088,1.294-0.109,1.988c-0.013,0.627,0.005,1.272,0.022,1.936c0.01,0.326,0.02,0.658,0.023,0.984 c0.021,2.001,0.134,4.134,0.342,6.506c0.137,1.706,0.32,3.464,0.506,5.249l0.164,1.567c0.076,1.003,0.191,2.011,0.307,3.03 l0.071,0.626c0.054,0.389,0.071,0.771,0.093,1.155l0.318,3.992c0.021,0.278,0.023,0.552,0.027,0.825 c0.004,0.293,0.01,0.586,0.023,0.824l0.112,3.411l-0.155,4.486c-0.002,0.044-0.002,0.087-0.002,0.131 c0.004,0.199-0.011,0.37-0.038,0.596l-0.157,1.616c-0.051,0.454-0.087,0.901-0.122,1.353c-0.052,0.65-0.099,1.262-0.207,1.956 c-0.161,1.194-0.311,2.362-0.425,3.447c-0.321,2.193-0.6,4.486-0.857,7.074c-0.028,0.379-0.065,0.748-0.102,1.113 c-0.075,0.745-0.152,1.515-0.158,2.303l-0.068,3.043c-0.096,1.654,0.041,3.19,0.162,4.548c0.037,0.429,0.075,0.845,0.098,1.171 c0.057,1.476,0.33,2.769,0.549,3.808c0.055,0.26,0.107,0.508,0.151,0.738c0.165,0.872,0.357,1.617,0.497,2.16 c0.057,0.218,0.107,0.412,0.161,0.641c0.287,1.114,0.722,2.799,2.681,2.799c1.051,0,1.988-0.656,2.349-1.643l0.335-0.918 c0.012-0.033,0.023-0.066,0.033-0.101c0.059-0.182,0.131-0.391,0.214-0.627c0.192-0.551,0.425-1.223,0.628-1.942l0.283-0.942 c0.253-0.851,0.54-1.813,0.913-2.862l0.78-2.283c0.138-0.377,0.252-0.764,0.367-1.157l0.054-0.188 c0.08-0.245,0.172-0.494,0.265-0.747l2.258-6.238c0.904-2.569,1.613-4.698,2.232-6.714c0.315-1.041,0.59-2.119,0.854-3.162 l0.141-0.554c0.398-1.363,0.639-2.879,0.854-4.25c0.467-2.351,0.57-4.341,0.67-6.266c0.033-0.641,0.066-1.284,0.114-1.942 c0.003-0.044,0.005-0.088,0.006-0.131l0.005-0.271c0.002-0.042,0-0.116-0.001-0.158 C369.578,160.89,369.574,160.806,369.574,160.786z"></path> <path fill="#FA0029" d="M323.604,145.48l-0.008-0.126c-0.035-0.683-0.078-1.408-0.191-2.14c-0.133-1.158-0.341-2.295-0.542-3.394 l-0.1-0.546c-0.007-0.038-0.015-0.076-0.023-0.114l-0.092-0.401c-0.259-1.129-0.525-2.296-0.858-3.372 c-0.168-0.627-0.369-1.27-0.592-1.897l-0.115-0.36c-0.158-0.501-0.316-0.994-0.475-1.388c-0.432-1.231-0.961-2.446-1.335-3.302 c-0.394-0.938-0.847-1.909-1.372-2.935l-0.092-0.17c-0.407-0.753-0.791-1.465-1.107-2.17c-0.336-0.703-0.691-1.319-0.977-1.814 l-0.146-0.256c-0.262-0.488-0.529-0.881-0.724-1.168c-0.06-0.087-0.112-0.164-0.206-0.312c-0.272-0.404-0.447-0.617-0.447-0.617 c-0.504-0.611-1.278-0.953-2.07-0.908c-0.79,0.04-1.529,0.452-1.968,1.11c0,0-0.152,0.229-0.383,0.656 c-0.017,0.031-0.032,0.063-0.048,0.095c-0.035,0.072-0.081,0.155-0.131,0.248c-0.164,0.304-0.388,0.719-0.57,1.167l-0.143,0.319 c-0.233,0.521-0.523,1.17-0.793,1.92c-0.156,0.42-0.333,0.898-0.495,1.514c-0.087,0.354-0.159,0.722-0.233,1.104l-0.105,0.535 c-0.21,1.18-0.372,2.405-0.486,3.709c-0.076,1.235-0.093,2.504-0.049,3.865c0.041,1.537,0.151,2.876,0.324,4.005 c0.123,1.082,0.32,2.146,0.51,3.174l0.143,0.775c0.008,0.04,0.016,0.079,0.025,0.119l0.121,0.529 c0.245,1.072,0.499,2.182,0.819,3.23c0.375,1.339,0.708,2.466,1.108,3.577c0.229,0.665,0.482,1.317,0.729,1.949 c0.169,0.432,0.335,0.853,0.507,1.327c0.392,0.997,0.837,2.013,1.361,3.091c0.244,0.466,0.451,0.911,0.646,1.332 c0.174,0.373,0.341,0.73,0.495,1.033c0.298,0.612,0.616,1.171,0.899,1.664l0.193,0.34c0.23,0.435,0.477,0.812,0.682,1.122 c0.063,0.097,0.121,0.182,0.165,0.256c0.018,0.03,0.036,0.06,0.056,0.089c0.23,0.353,0.385,0.557,0.409,0.59l0.001-0.001 c0.412,0.543,1.041,0.9,1.738,0.975c0.088,0.01,0.177,0.015,0.265,0.015c0.813,0,1.589-0.403,2.062-1.077 c0,0,0.158-0.228,0.4-0.663c0.016-0.029,0.031-0.059,0.047-0.089c0.033-0.066,0.076-0.142,0.123-0.227 c0.171-0.309,0.404-0.732,0.601-1.207l0.121-0.272c0.245-0.548,0.55-1.229,0.821-2.007c0.328-0.917,0.695-1.996,0.896-3.146 c0.225-1.152,0.404-2.336,0.529-3.482c0.146-1.181,0.193-2.423,0.153-3.952C323.682,146.767,323.645,146.128,323.604,145.48z"></path> </g> </svg>