<svg version="1.1" id="Layer_1" xmlns="http://www.w3.org/2000/svg" xmlns:xlink="http://www.w3.org/1999/xlink" x="0px" y="0px" viewBox="0 0 500 500" enable-background="new 0 0 500 500" xml:space="preserve"> <g> <path fill="#FA0029" d="M189.458,202.362l104.731-67.345c2.634-1.693,6.144-0.944,7.854,1.68 c6.715,10.291,20.588,13.257,30.922,6.608c1.272-0.818,2.816-1.098,4.293-0.776c1.477,0.32,2.766,1.215,3.583,2.487l10.649,16.58 l1.167-0.293c2.098-0.527,4.11-0.696,5.98-0.502c5.909,0.613,10.235,4.688,11.866,11.18l15.387,61.183l14.611-9.399 c4.234-2.724,5.006-6.263,2.281-10.496l-71.492-111.165c-2.725-4.235-6.264-5.005-10.499-2.281L143.362,213.96L189.458,202.362z"></path> <path fill="#FFFFFF" d="M340.842,145.016c-0.817-1.272-2.106-2.167-3.583-2.487c-1.477-0.321-3.021-0.042-4.293,0.776 c-10.334,6.648-24.207,3.683-30.922-6.608c-1.711-2.624-5.221-3.373-7.854-1.68l-104.731,67.345l162.033-40.767L340.842,145.016z"></path> <path fill="#DADAD9" d="M229.791,202.294c3.12-2.721,6.522-5.301,10.203-7.673c20.316-13.089,42.873-16.189,57.191-9.283 l56.207-14.142c1.554-0.39,2.926-0.464,4.116-0.232l-6.018-9.369l-162.033,40.767l-25.75,16.559L229.791,202.294z"></path> <path fill="#EB2330" d="M359.247,225.479c-0.019-0.028-0.032-0.059-0.051-0.087l0.913,3.64 C360.212,227.789,359.93,226.539,359.247,225.479z"></path> <path fill="#DADAD9" d="M367.591,186.66l-4.073-6.341l3.366,13.387C368.69,191.849,369.052,188.932,367.591,186.66z"></path> <path fill="#C9182A" d="M268.146,234.895l13.434,1.403C277.367,235.425,272.857,234.947,268.146,234.895z"></path> <path fill="#C9182A" d="M115.864,233.5c-0.394,0.918-0.548,1.979-0.475,3.171c0.055-0.423,0.126-0.828,0.216-1.209 C115.574,234.782,115.662,234.129,115.864,233.5z"></path> <path fill="#C9182A" d="M367.04,245.29c-0.49-0.089-0.994-0.168-1.529-0.224l-1.415-0.148l0.489,1.951L367.04,245.29z"></path> <path fill="#DADAD9" d="M367.359,274.732c2.123-1.25,3.267-3.786,2.638-6.296l-1.413-5.63c-0.013,0.223-0.024,0.445-0.048,0.677 L367.359,274.732z"></path> <path fill="#DADAD9" d="M210.467,228.87l-17.009-1.776l-28.435,7.148c-0.004,0-0.005,0.001-0.006,0.002 c-0.254,0.064-0.492,0.167-0.731,0.263l43.762,4.571l25.719,2.687c3.968-1.669,8.182-3.097,12.61-4.214 c7.473-1.886,14.835-2.731,21.771-2.656L210.467,228.87z"></path> <path fill="#DADAD9" d="M364.585,246.869l-0.489-1.951l-21.112-2.205l-43.667-4.562l-17.736-1.853 c5.5,1.14,10.488,2.95,14.74,5.358c3.707,2.101,6.852,4.655,9.289,7.613l23.378,2.442l24.147,2.522l8.638,0.902 c2.574,0.27,4.421,1.148,5.543,2.613L364.585,246.869z"></path> <g> <path fill="#C9182A" d="M367.591,186.66c1.461,2.271,1.1,5.188-0.707,7.046l11.188,44.487l7.819-5.03l-15.387-61.183 c-1.631-6.492-5.957-10.566-11.866-11.18c-1.87-0.194-3.883-0.025-5.98,0.502l-1.167,0.293l6.018,9.369l6.009,9.355 L367.591,186.66z"></path> <path fill="#C9182A" d="M239.994,194.621c-3.681,2.372-7.083,4.952-10.203,7.673l67.395-16.956 C282.867,178.432,260.311,181.532,239.994,194.621z"></path> <path fill="#C9182A" d="M367.04,245.29l-2.455,1.579l2.73,10.881c0.961,1.256,1.385,2.943,1.269,5.057l1.413,5.63 c0.629,2.51-0.515,5.046-2.638,6.296l-4.821,46.118l10.1-2.541l5.969-57.087c0.578-5.524-1.232-9.069-2.852-11.069 C374.288,248.345,371.615,246.128,367.04,245.29z"></path> <path fill="#C9182A" d="M149.48,222.5l14.229-3.58l25.75-16.559l-46.097,11.598l-23.892,15.369 c-1.909,1.228-3.107,2.623-3.606,4.171c-0.202,0.629-0.29,1.282-0.259,1.961c0.918-3.908,3.633-5.66,8.082-5.195l39.941,4.172 l0.657,0.068c0.24-0.097,0.478-0.199,0.731-0.263c0.001-0.001,0.002-0.002,0.006-0.002l28.435-7.148l-33.542-3.504L149.48,222.5z"></path> <path fill="#C9182A" d="M296.32,241.657c-4.252-2.408-9.24-4.218-14.74-5.358l-13.434-1.403 c-6.936-0.076-14.298,0.77-21.771,2.656c-4.428,1.118-8.642,2.545-12.61,4.214l56.457,5.897l15.387,1.607 C303.172,246.312,300.027,243.757,296.32,241.657z"></path> </g> <path fill="#EB2330" d="M367.315,257.75l1.269,5.057C368.7,260.693,368.276,259.006,367.315,257.75z"></path> <path fill="#EB2330" d="M164.285,234.507l-0.657-0.068c0.027,0.113,0.05,0.227,0.076,0.34 C163.893,234.677,164.085,234.588,164.285,234.507z"></path> <g> <path fill="#A7A6A6" d="M110.653,149.478c-14.327,3.409-23.178,17.784-19.77,32.109c0.027,0.116,0.062,0.229,0.091,0.344 c0.025,0.116,0.046,0.232,0.073,0.348c0.027,0.116,0.062,0.229,0.092,0.344c0.025,0.116,0.045,0.232,0.073,0.349 c0.026,0.115,0.062,0.228,0.091,0.343c0.025,0.117,0.046,0.232,0.072,0.349c0.028,0.115,0.062,0.229,0.092,0.344 c0.027,0.116,0.047,0.232,0.074,0.349s0.062,0.228,0.091,0.344c0.025,0.115,0.046,0.231,0.073,0.348 c0.027,0.115,0.062,0.228,0.092,0.344c0.025,0.115,0.045,0.231,0.073,0.348c0.026,0.115,0.062,0.228,0.091,0.344 c0.025,0.115,0.046,0.231,0.072,0.349c0.028,0.115,0.062,0.228,0.092,0.344c0.027,0.115,0.047,0.231,0.074,0.347 c0.027,0.116,0.062,0.229,0.091,0.345c0.025,0.115,0.046,0.231,0.073,0.347c0.027,0.118,0.062,0.229,0.092,0.345 c0.025,0.116,0.045,0.232,0.073,0.348c0.026,0.116,0.062,0.229,0.09,0.344c0.026,0.116,0.047,0.231,0.073,0.348 c3.408,14.324,17.785,23.176,32.111,19.768c14.322-3.406,23.174-17.783,19.766-32.108c-0.027-0.115-0.062-0.229-0.091-0.344 c-0.026-0.116-0.046-0.231-0.073-0.349c-0.027-0.115-0.062-0.228-0.092-0.343c-0.026-0.116-0.045-0.232-0.073-0.349 c-0.027-0.115-0.062-0.228-0.091-0.344c-0.025-0.115-0.046-0.231-0.073-0.348c-0.027-0.115-0.062-0.229-0.092-0.344 c-0.026-0.116-0.046-0.231-0.073-0.348c-0.027-0.115-0.062-0.229-0.091-0.344c-0.026-0.116-0.046-0.23-0.073-0.349 c-0.027-0.115-0.062-0.228-0.092-0.343c-0.026-0.116-0.045-0.232-0.073-0.348c-0.027-0.116-0.062-0.229-0.091-0.345 c-0.025-0.116-0.046-0.231-0.073-0.347c-0.027-0.117-0.062-0.229-0.092-0.345c-0.026-0.116-0.046-0.232-0.073-0.348 c-0.027-0.116-0.062-0.229-0.091-0.344c-0.026-0.116-0.046-0.232-0.073-0.348c-0.027-0.116-0.062-0.229-0.092-0.344 c-0.026-0.117-0.045-0.231-0.073-0.349c-0.027-0.115-0.062-0.228-0.091-0.342c-0.025-0.118-0.046-0.233-0.073-0.35 C139.352,154.921,124.976,146.071,110.653,149.478z"></path> <path fill="#DADAD9" d="M142.102,166.479c3.407,14.325-5.443,28.701-19.767,32.107c-14.326,3.409-28.702-5.441-32.109-19.767 c-3.408-14.325,5.442-28.701,19.77-32.109C124.317,143.305,138.694,152.154,142.102,166.479z"></path> </g> <g> <path fill="#A7A6A6" d="M394.634,330.241c-14.328,3.409-23.178,17.784-19.77,32.108c0.027,0.117,0.061,0.229,0.09,0.344 c0.027,0.117,0.047,0.232,0.074,0.348c0.027,0.117,0.062,0.229,0.092,0.346c0.025,0.115,0.045,0.232,0.072,0.348 s0.062,0.227,0.092,0.344c0.025,0.115,0.045,0.232,0.072,0.348c0.029,0.115,0.062,0.229,0.092,0.344 c0.027,0.117,0.045,0.232,0.074,0.348c0.027,0.115,0.061,0.23,0.09,0.344c0.027,0.115,0.047,0.232,0.074,0.348 s0.062,0.229,0.092,0.344c0.025,0.117,0.045,0.232,0.072,0.348c0.027,0.117,0.062,0.229,0.092,0.346 c0.025,0.113,0.045,0.23,0.072,0.346c0.029,0.117,0.062,0.229,0.092,0.344c0.027,0.117,0.045,0.232,0.074,0.35 c0.027,0.115,0.061,0.227,0.09,0.344c0.027,0.117,0.047,0.23,0.074,0.348c0.027,0.115,0.062,0.229,0.092,0.344 c0.025,0.115,0.045,0.23,0.072,0.348c0.027,0.115,0.062,0.229,0.092,0.344c0.025,0.115,0.045,0.23,0.072,0.348 c3.408,14.324,17.785,23.176,32.111,19.768c14.322-3.408,23.174-17.783,19.766-32.109c-0.027-0.115-0.062-0.227-0.09-0.344 c-0.027-0.115-0.047-0.232-0.074-0.348s-0.062-0.229-0.092-0.344c-0.025-0.115-0.045-0.232-0.072-0.348 c-0.029-0.115-0.062-0.229-0.092-0.344c-0.025-0.115-0.047-0.232-0.074-0.348s-0.062-0.229-0.09-0.344s-0.047-0.232-0.074-0.348 c-0.027-0.117-0.062-0.229-0.09-0.344c-0.027-0.117-0.047-0.232-0.074-0.348c-0.027-0.117-0.062-0.229-0.092-0.344 c-0.025-0.117-0.045-0.232-0.072-0.348c-0.029-0.117-0.062-0.229-0.092-0.344c-0.025-0.117-0.047-0.232-0.074-0.35 c-0.027-0.115-0.062-0.227-0.09-0.342c-0.027-0.117-0.047-0.232-0.074-0.35c-0.027-0.113-0.062-0.227-0.09-0.342 c-0.027-0.117-0.047-0.234-0.074-0.35s-0.062-0.229-0.092-0.344c-0.025-0.115-0.045-0.232-0.072-0.348 c-0.029-0.115-0.062-0.229-0.092-0.344c-0.025-0.115-0.047-0.232-0.074-0.348C423.331,335.686,408.956,326.835,394.634,330.241z"></path> <path fill="#DADAD9" d="M426.081,347.242c3.408,14.326-5.441,28.701-19.766,32.109c-14.326,3.408-28.703-5.443-32.109-19.768 c-3.408-14.326,5.441-28.7,19.77-32.108C408.298,324.067,422.675,332.918,426.081,347.242z"></path> </g> <g> <path fill="#A7A6A6" d="M454.292,250.825c-0.025-0.115-0.045-0.231-0.072-0.348c-3.408-14.325-17.785-23.176-32.107-19.769 c-14.326,3.408-23.178,17.784-19.77,32.109c0.027,0.116,0.062,0.229,0.092,0.344c0.025,0.116,0.045,0.231,0.072,0.348 c0.029,0.117,0.062,0.229,0.092,0.344c0.025,0.117,0.045,0.231,0.072,0.348c0.029,0.117,0.062,0.229,0.092,0.345 c0.027,0.116,0.047,0.231,0.074,0.348s0.062,0.229,0.092,0.344c0.025,0.115,0.045,0.231,0.072,0.348s0.062,0.229,0.092,0.345 c0.025,0.115,0.045,0.231,0.072,0.347c0.029,0.116,0.062,0.229,0.092,0.344c0.025,0.116,0.045,0.232,0.072,0.348 c0.029,0.116,0.062,0.229,0.092,0.344c0.027,0.116,0.047,0.232,0.074,0.349s0.062,0.229,0.092,0.344 c0.025,0.116,0.045,0.231,0.072,0.349c0.027,0.115,0.062,0.228,0.092,0.343c0.025,0.116,0.045,0.232,0.072,0.349 c0.027,0.115,0.062,0.229,0.092,0.345c0.025,0.114,0.045,0.23,0.072,0.347c0.029,0.115,0.062,0.229,0.092,0.344 c0.025,0.115,0.047,0.231,0.074,0.348c3.408,14.325,17.783,23.176,32.109,19.767c14.324-3.406,23.174-17.782,19.768-32.107 c-0.029-0.115-0.062-0.229-0.092-0.344c-0.025-0.116-0.047-0.231-0.074-0.348s-0.062-0.229-0.092-0.344 c-0.025-0.116-0.045-0.231-0.072-0.348c-0.027-0.117-0.062-0.229-0.092-0.345c-0.025-0.115-0.045-0.231-0.072-0.347 c-0.027-0.117-0.062-0.229-0.092-0.345c-0.025-0.115-0.045-0.232-0.072-0.348c-0.029-0.116-0.062-0.229-0.092-0.344 c-0.025-0.116-0.047-0.232-0.074-0.348c-0.027-0.116-0.062-0.229-0.092-0.344c-0.025-0.116-0.045-0.232-0.072-0.348 c-0.027-0.116-0.062-0.229-0.092-0.344c-0.025-0.116-0.045-0.232-0.072-0.349s-0.062-0.229-0.092-0.344 c-0.025-0.115-0.045-0.231-0.072-0.349c-0.029-0.115-0.062-0.228-0.092-0.343c-0.025-0.116-0.047-0.231-0.074-0.349 c-0.027-0.115-0.062-0.229-0.09-0.344s-0.047-0.231-0.074-0.348C454.356,251.055,454.321,250.94,454.292,250.825z"></path> <path fill="#DADAD9" d="M453.562,247.711c3.408,14.325-5.443,28.7-19.768,32.108c-14.326,3.408-28.701-5.442-32.109-19.768 s5.443-28.701,19.77-32.108C435.776,224.535,450.153,233.387,453.562,247.711z"></path> </g> <g> <path fill="#A7A6A6" d="M64.475,239.811c-14.326,3.407-23.178,17.783-19.769,32.108c0.026,0.115,0.062,0.229,0.09,0.345 c0.027,0.114,0.047,0.23,0.074,0.348c0.027,0.115,0.062,0.228,0.091,0.343c0.026,0.116,0.046,0.231,0.073,0.349 c0.027,0.116,0.062,0.229,0.092,0.344c0.025,0.115,0.045,0.231,0.073,0.348s0.062,0.229,0.091,0.344 c0.025,0.116,0.046,0.231,0.073,0.348s0.062,0.229,0.091,0.344c0.027,0.116,0.047,0.231,0.074,0.348 c0.027,0.117,0.062,0.229,0.091,0.344c0.026,0.116,0.046,0.231,0.073,0.348c0.027,0.117,0.062,0.229,0.092,0.345 c0.025,0.115,0.045,0.231,0.073,0.348s0.062,0.229,0.091,0.344c0.025,0.116,0.046,0.232,0.073,0.348 c0.027,0.116,0.062,0.229,0.091,0.344c0.027,0.115,0.047,0.232,0.074,0.348c0.027,0.116,0.062,0.229,0.091,0.344 c0.026,0.116,0.046,0.233,0.073,0.348c0.027,0.117,0.062,0.229,0.092,0.345c0.025,0.115,0.045,0.231,0.073,0.348 c3.407,14.325,17.783,23.175,32.11,19.768c14.322-3.408,23.174-17.783,19.766-32.108c-0.027-0.116-0.062-0.229-0.092-0.344 c-0.025-0.116-0.045-0.232-0.073-0.348c-0.026-0.116-0.062-0.229-0.091-0.344c-0.025-0.116-0.045-0.232-0.073-0.347 c-0.027-0.117-0.062-0.229-0.091-0.345c-0.026-0.116-0.047-0.232-0.074-0.349s-0.062-0.228-0.09-0.344 c-0.027-0.115-0.046-0.231-0.074-0.349c-0.027-0.114-0.062-0.228-0.092-0.343c-0.025-0.115-0.045-0.23-0.073-0.349 c-0.026-0.115-0.062-0.229-0.091-0.344c-0.025-0.115-0.045-0.231-0.073-0.348c-0.027-0.115-0.062-0.229-0.091-0.344 c-0.026-0.115-0.047-0.231-0.074-0.347c-0.027-0.117-0.062-0.229-0.09-0.345c-0.027-0.114-0.046-0.231-0.074-0.348 c-0.027-0.117-0.062-0.229-0.092-0.345c-0.025-0.115-0.045-0.23-0.072-0.347s-0.062-0.229-0.092-0.345 c-0.025-0.115-0.045-0.23-0.073-0.348c-0.027-0.116-0.062-0.229-0.091-0.344c-0.026-0.116-0.047-0.231-0.073-0.348 C93.173,245.253,78.798,236.402,64.475,239.811z"></path> <circle fill="#DADAD9" cx="69.986" cy="262.982" r="26.662"></circle> </g> <path id="XMLID_289_" fill="#FA0029" d="M354.792,394.936c-0.523,5.008-3.338,7.287-8.347,6.764L108.358,376.83 c-5.008-0.523-7.289-3.34-6.765-8.35l13.745-131.449c0.523-5.009,3.34-7.288,8.348-6.765l238.086,24.87 c5.008,0.523,7.287,3.339,6.764,8.347L354.792,394.936z"></path> <path fill="#FFFFFF" d="M347.909,298.758c-0.953-1.174-2.332-1.922-3.835-2.078c-12.224-1.277-21.191-12.268-19.994-24.498 c0.305-3.118-1.964-5.896-5.079-6.222l-155.793-16.303l-0.006-0.001c-1.502-0.156-3.004,0.291-4.177,1.241 c-1.173,0.952-1.922,2.332-2.078,3.835c-1.278,12.256-12.294,21.227-24.555,19.994c-3.121-0.313-5.908,1.956-6.233,5.075 l-5.178,49.225c-0.156,1.504,0.289,3.008,1.241,4.182c0.95,1.175,2.331,1.922,3.834,2.079 c12.221,1.277,21.191,12.268,19.994,24.498c-0.306,3.115,1.964,5.895,5.078,6.221l155.794,16.303c0,0,0.004,0,0.006,0.002 c1.501,0.154,3.004-0.291,4.176-1.242c1.174-0.953,1.922-2.332,2.078-3.834c1.279-12.258,12.293-21.227,24.555-19.996 c3.121,0.314,5.909-1.955,6.236-5.074l5.174-49.224C349.306,301.437,348.86,299.933,347.909,298.758z"></path> <ellipse transform="matrix(0.9947 0.1031 -0.1031 0.9947 33.8428 -22.5586)" fill="#FF5959" cx="235.064" cy="315.983" rx="57.006" ry="36.414"></ellipse> <path fill="#FFFFFF" d="M357.952,220.43c-0.294-1.172-0.962-2.199-1.876-2.966c-0.229-0.193-0.464-0.381-0.725-0.537 c-1.297-0.776-2.85-1.004-4.315-0.635c-11.918,2.998-24.115-4.243-27.191-16.142c-0.783-3.033-3.867-4.864-6.905-4.101 l-123.482,31.044l170.638,17.824L357.952,220.43z"></path> <path fill="#FA0029" d="M394.847,304.892l-27.963-111.186l-3.366-13.387l-6.009-9.355c-1.19-0.232-2.562-0.158-4.116,0.232 L163.708,218.92l-14.229,3.58l10.436,1.09l33.542,3.504l123.482-31.044c3.038-0.764,6.122,1.067,6.905,4.101 c3.076,11.898,15.273,19.14,27.191,16.142c1.466-0.369,3.019-0.142,4.315,0.635c0.261,0.156,0.495,0.344,0.725,0.537 c0.914,0.767,1.582,1.793,1.876,2.966l1.244,4.961c0.019,0.029,4.899,19.526,4.899,19.526l1.415,0.148 c0.535,0.056,1.039,0.135,1.529,0.224c4.575,0.838,7.248,3.055,8.715,4.864c1.619,2,3.43,5.545,2.852,11.069l-5.969,57.087 l16.691-4.199C394.214,312.883,396.075,309.774,394.847,304.892z"></path> <path fill="#FA0029" d="M362.611,176.714c-0.837-3.33-2.55-5.25-5.103-5.75l0.386,3.158l5.623,6.197L362.611,176.714z"></path> </g> </svg>