<svg version="1.1" id="Layer_1" xmlns="http://www.w3.org/2000/svg" xmlns:xlink="http://www.w3.org/1999/xlink" x="0px" y="0px" viewBox="0 0 500 500" enable-background="new 0 0 500 500" xml:space="preserve"> <g> <g> <g> <path fill="#FA0029" d="M149.794,334.492c0,0-57.349,0-99.82,0c0-7.198,0-3.634,0-3.634c0-37.196,29.442-36.671,29.442-36.671 s0,0,0.828,0c38.774,0,34.073-42.96,34.073-42.96h47.314c0,0-4.701,42.96,34.072,42.96c0.827,0,0.827,0,0.827,0 s30.654-0.525,30.654,36.671c0,6.743,0-1.737,0,3.634c-46.878,0-125.252,0-125.252,0"></path> </g> <g> <path fill="#FA0029" d="M49.975,334.492c0,0,29.727,13.881,88.604,13.881c58.88,0,88.606-13.881,88.606-13.881l-88.606-22.562 L49.975,334.492z"></path> </g> <g> <g> <path fill="#A7A6A6" d="M87.151,142.896c0,0-14.593-12.774-31.129-34.733c-13.715,15.111-13.577,79.301,31.543,74.93 c45.121-4.375,89.441-7.999,102.783,13.465"></path> <path fill="#A7A6A6" d="M190.351,200.425c-1.291,0-2.552-0.649-3.284-1.827c-12.474-20.063-60.522-15.408-99.131-11.661 c-16.756,1.619-30.072-5.609-37.48-20.366c-4.727-9.416-6.9-21.473-6.124-33.945c0.726-11.652,4.025-21.766,8.828-27.058 c0.774-0.854,1.885-1.335,3.039-1.265c1.148,0.055,2.215,0.617,2.908,1.534c16.07,21.341,30.448,34.026,30.591,34.15 c1.604,1.405,1.766,3.846,0.36,5.45c-1.405,1.606-3.844,1.766-5.45,0.363c-0.566-0.497-13.201-11.628-28.358-30.996 c-2.218,4.538-3.756,11.083-4.207,18.3c-0.683,10.972,1.256,21.904,5.318,30c6.047,12.042,16.077,17.469,29.831,16.141 c42.856-4.152,91.431-8.867,106.438,15.275c1.125,1.812,0.57,4.192-1.242,5.321 C191.753,200.237,191.046,200.425,190.351,200.425z"></path> </g> <g> <path fill="#EC1B2E" stroke="#EC1B2E" stroke-width="7" stroke-linecap="round" stroke-linejoin="round" stroke-miterlimit="10" d=" M142.854,145.099"></path> </g> <g> <defs> <circle id="SVGID_1_" cx="133.138" cy="211.285" r="78.698"></circle> </defs> <use xlink:href="#SVGID_1_" overflow="visible" fill="#E6E5E5"></use> <clipPath id="SVGID_2_"> <use xlink:href="#SVGID_1_" overflow="visible"></use> </clipPath> </g> <g> <path fill="#FA0029" d="M102.655,259.781c-3.396,0-6.147-2.752-6.147-6.15v-11.103c0-3.395,2.752-6.147,6.147-6.147h24.336 c3.393,0,6.146,2.752,6.146,6.147v11.103c0,3.397-2.752,6.15-6.146,6.15H102.655z"></path> </g> <g> <path fill="#FA0029" d="M167.228,251.944h-45.126v-7.727h45.126c15.777,0,28.612-12.835,28.612-28.611V199.01h7.725v16.596 C203.565,235.643,187.265,251.944,167.228,251.944z"></path> </g> <g> <path fill="#A7A6A6" d="M202.239,181.749c0,0,6.257-36.649-36.203-64.7c-8.508,4.259-16.419,11.392-16.419,11.392 s-22.352-1.508-32.96-22.993c-13.576,4.997-18.525,19.958-18.525,19.958s-25.306,3.531-42.11-17.242 c-7.217,20.248,4.636,62.906,49.542,59.482C150.468,164.218,188.625,161.488,202.239,181.749z"></path> <path fill="#A7A6A6" d="M202.237,185.612c-1.268,0-2.479-0.625-3.205-1.708c-6.87-10.226-21.733-14.787-48.187-14.787 c-13.809,0-29.659,1.212-44.989,2.382c-1.79,0.136-3.572,0.204-5.296,0.204c-0.002,0-0.003,0-0.004,0 c-21.997,0-34.239-10.816-40.636-19.889c-10.751-15.249-11.443-33.986-7.537-44.947c0.469-1.317,1.613-2.275,2.989-2.511 c1.378-0.234,2.772,0.293,3.654,1.378c11.284,13.953,26.628,16.036,34.77,16.036c0.613,0,1.166-0.013,1.646-0.035 c2.161-4.863,8.097-15.577,19.884-19.915c1.853-0.685,3.922,0.146,4.797,1.917c8.042,16.294,23.372,19.913,28.257,20.666 c2.7-2.28,9.073-7.373,15.927-10.808c1.236-0.615,2.708-0.532,3.859,0.229c44.057,29.106,38.154,66.978,37.88,68.577 c-0.265,1.555-1.453,2.793-2.997,3.124C202.779,185.583,202.507,185.612,202.237,185.612z M150.845,161.394 c26.662,0,40.117,4.9,47.717,10.779c-0.982-11.654-6.71-32.621-32.766-50.626c-7.179,4.017-13.523,9.7-13.592,9.761 c-0.776,0.7-1.798,1.053-2.846,0.985c-0.954-0.066-22.411-1.742-34.375-21.84c-9.387,5.187-13.146,16.056-13.187,16.176 c-0.467,1.387-1.681,2.402-3.13,2.603c-0.195,0.026-1.98,0.263-4.87,0.263c-6.747,0-22.521-1.424-35.614-13.409 c-1.07,9.305,1.109,21.429,8.051,31.276c5.346,7.581,15.638,16.614,34.323,16.616c0.002,0,0.003,0,0.004,0 c1.529,0,3.113-0.062,4.709-0.184C120.741,162.614,136.743,161.394,150.845,161.394z"></path> </g> <g> <path fill="#FA0029" d="M212.395,214.998c0,4.362-3.242,7.891-7.244,7.891h-13.08c-3.999,0-7.241-3.529-7.241-7.891v-31.241 c0-4.358,3.242-7.891,7.241-7.891h13.08c4.001,0,7.244,3.533,7.244,7.891V214.998z"></path> </g> <g> <path fill="#FF5959" d="M198.143,209.994c0,2.962,2.204,5.362,4.923,5.362h12.249c2.72,0,4.925-2.4,4.925-5.362V188.76 c0-2.965-2.205-5.365-4.925-5.365h-12.249c-2.719,0-4.923,2.4-4.923,5.365V209.994z"></path> </g> </g> </g> <g> <path fill="#A7A6A6" d="M248.547,188.668c0,0,6.005-90.911,87.367-90.911c69.009,0,58.358,43.439,58.358,43.439"></path> <g> <path fill="#A7A6A6" d="M432.153,238.374c0,0,26.367-102.042-77.689-122.233C329.32,173.28,397.348,240.997,432.153,238.374z"></path> <path fill="#A7A6A6" d="M353.383,178.22c-9.868-22.313-10.582-44.343-2.065-63.696c0.802-1.825,1.385-2.892,2.995-2.592 c106.73,19.711,81.448,126.543,81.264,127.254c-0.487,1.897-1.969,3.306-3.601,3.431c-11.082,0.831-25.613-4.92-39.867-15.789 C375.593,214.241,361.477,196.52,353.383,178.22z M399.422,139.556c-11.42-8.707-25.905-14.971-43.094-18.644 c-12.947,34.82,9.927,75.6,40.132,98.624c11.862,9.046,23.682,14.259,32.983,14.642 C431.992,220.589,438.504,169.344,399.422,139.556z"></path> </g> <g> <g> <path fill="#A7A6A6" d="M242.682,233.145c0,0,12.385,36.773-11.197,56.021c34.14,24.343,109.42,12.278,109.42,12.278"></path> <path fill="#A7A6A6" d="M303.358,305.738c-25.486,1.628-56.035,0.094-74.408-13.008c-1.015-0.724-1.634-1.879-1.675-3.124 c-0.042-1.247,0.502-2.439,1.467-3.227c21.563-17.6,15.651-57.822,15.589-58.224c-0.336-2.184,1.161-4.223,3.343-4.562 c2.194-0.324,4.225,1.16,4.561,3.343c0.07,0.457,1.704,11.326,0.364,24.752c-1.573,15.761-6.664,28.48-14.815,37.161 c34.451,19.04,107.096,3.26,107.857,3.093c2.156-0.481,4.291,0.879,4.769,3.035c0.478,2.159-0.883,4.292-3.038,4.769 C345.754,300.105,326.676,304.249,303.358,305.738z"></path> </g> <g> <path fill="#A7A6A6" d="M426.983,233.145c0,0-12.368,36.793,11.214,56.041c-34.14,24.343-109.437,12.258-109.437,12.258"></path> <path fill="#A7A6A6" d="M366.307,305.738c25.486,1.628,56.035,0.094,74.408-13.008c1.015-0.724,1.634-1.879,1.675-3.124 c0.041-1.247-0.502-2.439-1.467-3.227c-21.563-17.6-15.651-57.822-15.589-58.224c0.336-2.184-1.161-4.223-3.343-4.562 c-2.195-0.324-4.225,1.16-4.56,3.343c-0.07,0.457-1.705,11.326-0.366,24.752c1.573,15.761,6.665,28.48,14.816,37.161 c-34.451,19.04-107.096,3.26-107.858,3.093c-2.155-0.481-4.29,0.879-4.767,3.035c-0.478,2.159,0.881,4.292,3.038,4.769 C323.91,300.105,342.989,304.249,366.307,305.738z"></path> </g> </g> <g> <path fill="#FA0029" d="M354.785,380.067c0,0-74.627,0-126.835,0c0-8.845,0-4.465,0-4.465c0-45.724,40.325-45.078,40.325-45.078 s0,0,1.017,0c47.662,0,41.884-52.808,41.884-52.808h58.159c0,0-5.779,52.808,41.882,52.808c1.018,0,1.018,0,1.018,0 s41.811-0.646,41.811,45.078c0,8.285,0-2.135,0,4.465c-57.624,0-158.096,0-158.096,0"></path> </g> <g> <path fill="#EC1B2E" stroke="#EC1B2E" stroke-width="7" stroke-linecap="round" stroke-linejoin="round" stroke-miterlimit="10" d=" M328.375,147.261"></path> </g> <g> <defs> <path id="SVGID_3_" d="M243.583,228.616c0,53.427,43.311,96.74,96.737,96.74s96.737-43.313,96.737-96.74 c0-53.424-43.311-96.737-96.737-96.737S243.583,175.192,243.583,228.616z"></path> </defs> <use xlink:href="#SVGID_3_" overflow="visible" fill="#E6E5E5"></use> <clipPath id="SVGID_4_"> <use xlink:href="#SVGID_3_" overflow="visible"></use> </clipPath> </g> <g> <path fill="#FA0029" d="M377.79,288.228c4.173,0,7.556-3.382,7.556-7.556v-13.649c0-4.172-3.382-7.557-7.556-7.557h-29.913 c-4.172,0-7.556,3.385-7.556,7.557v13.649c0,4.174,3.384,7.556,7.556,7.556H377.79z"></path> </g> <g> <path fill="#FA0029" d="M353.886,278.595h-55.472c-24.629,0-44.668-20.038-44.668-44.665v-20.403h9.497v20.403 c0,19.392,15.779,35.17,35.171,35.17h55.472V278.595z"></path> </g> <g> <path fill="#FA0029" d="M227.949,380.067c0,0,40.672,18.092,113.048,18.092c72.377,0,113.048-18.092,113.048-18.092 l-113.048-27.736L227.949,380.067z"></path> </g> <g> <path fill="#FF5959" d="M252.203,187.809c0,0,19.613-106.9,126.043-68.144C377.003,185.214,283.724,209.266,252.203,187.809z"></path> <path fill="#A7A6A6" d="M294.8,199.303c-18.099,2.028-34.238-0.724-44.275-7.559c-1.477-1.006-2.253-3.094-1.889-5.08 c0.138-0.744,3.468-18.418,14.509-37.097c10.224-17.296,29.249-38.684,61.818-42.333c16.213-1.818,33.517,1.011,53.246,8.473 c1.638,0.617,3.731,2.129,3.692,4.22c-0.422,22.203-10.667,41.766-29.626,56.568C336.72,188.642,315.771,196.953,294.8,199.303z M256.569,185.489c8.896,4.754,22.256,6.509,37.319,4.817c38.354-4.294,77.549-28.703,80.532-67.343 c-17.727-6.095-34.045-8.359-48.546-6.736C276.25,121.791,260.085,171.783,256.569,185.489z"></path> </g> <g> <path fill="#A7A6A6" d="M385.722,117.475c-110.139-32.042-130.724,70.338-130.724,70.338 c32.22,20.036,123.394,0.376,136.383-55.7C389.312,127.298,387.393,122.43,385.722,117.475z"></path> <path fill="#A7A6A6" d="M388.495,125.083c-4.605,37.408-46.672,61.014-87.879,65.228c-16.485,1.689-31.104-0.063-40.84-4.815 c3.848-13.7,21.537-63.67,75.84-69.229c15.546-1.59,33.002,0.558,51.943,6.375c-1.194-3.179-2.289-6.395-3.261-9.652 c-18.084-5.373-34.331-7.285-49.68-5.712c-35.64,3.647-56.457,25.025-67.647,42.313c-12.083,18.668-15.727,36.336-15.876,37.08 c-0.399,1.984,0.451,4.071,2.066,5.078c10.986,6.832,28.646,9.582,48.451,7.554c22.947-2.345,45.872-10.654,62.893-22.796 c14.913-10.632,24.868-23.737,29.478-38.502C392.058,133.732,390.201,129.433,388.495,125.083z"></path> </g> <g> <path fill="#FA0029" d="M242.894,233.182c0,5.358,3.987,9.696,8.904,9.696h16.078c4.916,0,8.903-4.338,8.903-9.696v-38.401 c0-5.362-3.987-9.705-8.903-9.705h-16.078c-4.917,0-8.904,4.343-8.904,9.705V233.182z"></path> </g> <g> <path fill="#FF5959" d="M232.066,227.03c0,3.64,2.709,6.594,6.051,6.594h15.408c3.342,0,6.052-2.954,6.052-6.594v-26.1 c0-3.645-2.71-6.596-6.052-6.596h-15.408c-3.342,0-6.051,2.951-6.051,6.596V227.03z"></path> </g> </g> </g> </svg>