<svg version="1.1" id="Layer_1" xmlns="http://www.w3.org/2000/svg" xmlns:xlink="http://www.w3.org/1999/xlink" x="0px" y="0px" viewBox="0 0 500 500" enable-background="new 0 0 500 500" xml:space="preserve"> <g> <path fill="#DADAD9" d="M382.782,224.531c-6.778,7.569-16.614,12.344-27.55,12.344c-10.935,0-20.772-4.774-27.551-12.343 c-6.776,7.568-16.614,12.343-27.548,12.343c-10.935,0-20.772-4.774-27.55-12.343c-6.777,7.568-16.615,12.343-27.549,12.343 c-10.936,0-20.772-4.774-27.551-12.344c-6.776,7.569-16.613,12.344-27.548,12.344s-20.772-4.774-27.55-12.344 c-6.778,7.569-16.615,12.344-27.55,12.344s-20.772-4.774-27.549-12.343c-6.778,7.568-16.615,12.343-27.55,12.343 c-0.869,0-1.729-0.041-2.584-0.101v154.337c0,1.715,1.391,3.104,3.104,3.104h329.551c1.714,0,3.104-1.389,3.104-3.104V236.775 c-0.854,0.059-1.712,0.1-2.58,0.1C399.396,236.875,389.559,232.1,382.782,224.531z"></path> <path fill="#C6C6C6" d="M434.458,195.294h-4.55c-0.771,1.355-1.216,2.92-1.216,4.59h-36.474c0-5.143-4.169-9.312-9.312-9.312 c-0.043,0-0.083,0.005-0.125,0.007c-0.042-0.002-0.083-0.007-0.126-0.007c-5.143,0-9.312,4.169-9.312,9.312h-36.225 c0-5.143-4.169-9.312-9.312-9.312c-0.042,0-0.083,0.005-0.126,0.007c-0.043-0.002-0.083-0.007-0.125-0.007 c-5.143,0-9.312,4.169-9.312,9.312h-36.224c0-5.143-4.169-9.312-9.312-9.312c-0.043,0-0.083,0.005-0.125,0.007 c-0.043-0.002-0.084-0.007-0.126-0.007c-5.143,0-9.312,4.169-9.312,9.312h-36.225c0-5.143-4.17-9.312-9.312-9.312 c-0.042,0-0.083,0.005-0.125,0.007c-0.042-0.002-0.082-0.007-0.125-0.007c-5.144,0-9.312,4.169-9.312,9.312h-36.225 c0-5.143-4.168-9.312-9.311-9.312c-0.044,0-0.084,0.005-0.125,0.007c-0.043-0.002-0.084-0.007-0.126-0.007 c-5.143,0-9.312,4.169-9.312,9.312h-36.225c0-5.143-4.168-9.312-9.311-9.312c-0.043,0-0.084,0.005-0.126,0.007 c-0.044-0.002-0.084-0.007-0.127-0.007c-5.143,0-9.312,4.169-9.312,9.312H61.374c0-1.67-0.445-3.234-1.216-4.59h-4.549 c0,14.412,7.475,26.25,21.545,27.555v13.925c0.854,0.06,1.715,0.101,2.584,0.101c10.935,0,20.771-4.774,27.55-12.343 c6.776,7.568,16.614,12.343,27.549,12.343s20.771-4.774,27.55-12.344c6.777,7.569,16.615,12.344,27.55,12.344 s20.771-4.774,27.548-12.344c6.778,7.569,16.615,12.344,27.551,12.344c10.934,0,20.771-4.774,27.549-12.343 c6.777,7.568,16.615,12.343,27.55,12.343c10.934,0,20.771-4.774,27.548-12.343c6.778,7.568,16.616,12.343,27.551,12.343 c10.936,0,20.771-4.774,27.55-12.344c6.776,7.569,16.614,12.344,27.55,12.344c0.868,0,1.727-0.041,2.58-0.1v-13.926 C426.984,221.545,434.458,209.708,434.458,195.294z"></path> <path fill="#FA0029" d="M377.062,105.785H113.004c-1.471,0-2.66,1.191-2.66,2.66v56.83c0,1.47,1.189,2.66,2.66,2.66h264.059 c1.469,0,2.661-1.19,2.661-2.66v-56.83C379.724,106.976,378.531,105.785,377.062,105.785z"></path> <path fill="#FA0029" d="M342.229,121.574l40.428,75.424c0,15.283,12.391,27.678,27.676,27.678 c15.283,0,27.674-12.395,27.674-27.678l-58.264-75.424"></path> <path fill="#FF8B8B" d="M382.656,196.998c0,15.283,12.391,27.678,27.676,27.678c15.283,0,27.673-12.395,27.673-27.678"></path> <path fill="#FF8B8B" d="M302.786,121.574l24.771,75.424c0,15.283,12.392,27.678,27.676,27.678s27.675-12.395,27.675-27.678 l-40.428-75.424"></path> <path fill="#FA0029" d="M327.557,196.998c0,15.283,12.392,27.678,27.676,27.678s27.675-12.395,27.675-27.678"></path> <path fill="#FA0029" d="M261.164,121.574l11.294,75.424c0,15.283,12.392,27.678,27.676,27.678s27.674-12.395,27.674-27.678 l-24.771-75.424"></path> <path fill="#FA0029" d="M272.458,196.998c0,15.283,12.392,27.678,27.676,27.678s27.674-12.395,27.674-27.678"></path> <path fill="#FF8B8B" d="M228.653,121.574l-11.294,75.424c0,15.283,12.392,27.678,27.676,27.678 c15.282,0,27.674-12.395,27.674-27.678l-11.295-75.424"></path> <path fill="#FA0029" d="M217.359,196.998c0,15.283,12.392,27.678,27.676,27.678c15.282,0,27.674-12.395,27.674-27.678"></path> <path fill="#FA0029" d="M187.031,121.574l-24.771,75.424c0,15.283,12.391,27.678,27.676,27.678 c15.282,0,27.674-12.395,27.674-27.678l11.294-75.424"></path> <path fill="#FF8B8B" d="M162.261,196.998c0,15.283,12.391,27.678,27.676,27.678c15.283,0,27.673-12.395,27.673-27.678"></path> <path fill="#FF8B8B" d="M147.588,121.574l-40.427,75.424c0,15.283,12.393,27.678,27.675,27.678 c15.285,0,27.676-12.395,27.676-27.678l24.771-75.424"></path> <path fill="#FA0029" d="M162.512,196.998c0,15.283-12.393,27.678-27.675,27.678c-15.283,0-27.676-12.395-27.676-27.678"></path> <path fill="#FA0029" d="M110.325,121.574l-58.263,75.424c0,15.283,12.393,27.678,27.676,27.678s27.676-12.395,27.676-27.678 l40.426-75.424"></path> <path fill="#FF8B8B" d="M52.062,196.998c0,15.283,12.393,27.678,27.676,27.678s27.676-12.395,27.676-27.678"></path> <path fill="#FA0029" d="M272.792,247.71h-165.73c-1.225,0-2.217,0.992-2.217,2.217V359.76c0,1.225,0.992,2.217,2.217,2.217h165.73 c1.226,0,2.218-0.992,2.218-2.217V249.927C275.01,248.703,274.018,247.71,272.792,247.71z"></path> <path fill="#FA0029" d="M385.133,394.215V249.927c0-1.225-0.992-2.217-2.217-2.217h-82.865c-1.225,0-2.218,0.992-2.218,2.217 v144.288"></path> <path fill="#FFFFFF" d="M369.086,261.615h-55.059c-1.225,0-2.217,0.992-2.217,2.217v63.707c0,1.225,0.992,2.217,2.217,2.217h55.059 c1.225,0,2.217-0.992,2.217-2.217v-63.707C371.303,262.607,370.311,261.615,369.086,261.615z"></path> <path fill="#FFFFFF" d="M258.896,261.615H120.973c-1.225,0-2.217,0.992-2.217,2.217v82.023c0,1.225,0.992,2.217,2.217,2.217 h137.924c1.225,0,2.217-0.992,2.217-2.217v-82.023C261.113,262.607,260.121,261.615,258.896,261.615z"></path> <g> <path fill="#FFFFFF" d="M322.032,350.232c0,2.824-2.289,5.111-5.112,5.111c-2.821,0-5.109-2.287-5.109-5.111 c0-2.82,2.288-5.111,5.109-5.111C319.743,345.121,322.032,347.412,322.032,350.232"></path> </g> </g> </svg>